HIERARCHY
ROOT Hips
{
	OFFSET 0.000000 0.000000 0.000000 
	CHANNELS 6 Xposition Yposition Zposition Zrotation Yrotation Xrotation
	JOINT LeftUpLeg
	{
		OFFSET 1.363060 -1.794630 0.839290 
		CHANNELS 3 Zrotation Yrotation Xrotation
		JOINT LeftLeg
		{
			OFFSET 2.448110 -6.726130 0.000000 
			CHANNELS 3 Zrotation Yrotation Xrotation
			JOINT LeftFoot
			{
				OFFSET 2.562200 -7.039590 0.000000 
				CHANNELS 3 Zrotation Yrotation Xrotation
				JOINT LeftToeBase
				{
					OFFSET 0.157640 -0.433110 2.322550 
					CHANNELS 3 Zrotation Yrotation Xrotation
					End Site
					{
						OFFSET 0.000000 0.000000 0.000000 
					}
				}
			}
		}
	}
	JOINT RightUpLeg
	{
		OFFSET -1.305520 -1.794630 0.839290 
		CHANNELS 3 Zrotation Yrotation Xrotation
		JOINT RightLeg
		{
			OFFSET -2.542530 -6.985550 0.000000 
			CHANNELS 3 Zrotation Yrotation Xrotation
			JOINT RightFoot
			{
				OFFSET -2.568260 -7.056230 0.000000 
				CHANNELS 3 Zrotation Yrotation Xrotation
				JOINT RightToeBase
				{
					OFFSET -0.164730 -0.452590 2.363150 
					CHANNELS 3 Zrotation Yrotation Xrotation
					End Site
					{
						OFFSET 0.000000 0.000000 0.000000 
					}
				}
			}
		}
	}
	JOINT Spine
	{
		OFFSET 0.028270 2.035590 -0.193380 
		CHANNELS 3 Zrotation Yrotation Xrotation
		JOINT Spine1
		{
			OFFSET 0.056720 2.048850 -0.042750 
			CHANNELS 3 Zrotation Yrotation Xrotation
			JOINT Neck1
			{
				OFFSET -0.054170 1.746240 0.172020 
				CHANNELS 3 Zrotation Yrotation Xrotation
				JOINT Head
				{
					OFFSET 0.104070 1.761360 -0.123970 
					CHANNELS 3 Zrotation Yrotation Xrotation
					End Site
					{
						OFFSET 0.000000 0.000000 0.000000 
					}
				}
			}
			JOINT LeftArm
			{
				OFFSET 3.362410 1.200890 -0.311210 
				CHANNELS 3 Zrotation Yrotation Xrotation
				JOINT LeftForeArm
				{
					OFFSET 4.983000 -0.000000 -0.000000 
					CHANNELS 3 Zrotation Yrotation Xrotation
					JOINT LeftHand
					{
						OFFSET 3.483560 -0.000000 -0.000000 
						CHANNELS 3 Zrotation Yrotation Xrotation
						JOINT LeftHandIndex1
						{
							OFFSET 0.715260 -0.000000 -0.000000 
							CHANNELS 3 Zrotation Yrotation Xrotation
							End Site
							{
								OFFSET 0.000000 0.000000 0.000000 
							}
						}
					}
				}
			}
			JOINT RightArm
			{
				OFFSET -3.136600 1.374050 -0.404650 
				CHANNELS 3 Zrotation Yrotation Xrotation
				JOINT RightForeArm
				{
					OFFSET -5.241900 -0.000000 -0.000000 
					CHANNELS 3 Zrotation Yrotation Xrotation
					JOINT RightHand
					{
						OFFSET -3.444170 -0.000000 -0.000000 
						CHANNELS 3 Zrotation Yrotation Xrotation
						JOINT RightHandIndex1
						{
							OFFSET -0.622530 -0.000000 -0.000000 
							CHANNELS 3 Zrotation Yrotation Xrotation
							End Site
							{
								OFFSET 0.000000 0.000000 0.000000 
							}
						}
					}
				}
			}
		}
	}
}
MOTION
Frames: 14
Frame Time: 0.041667
1.131890 17.991620 7.465294 2.010385 -0.946522 0.411110 -23.385195 -9.643970 -6.619954 0.904595 6.803433 27.054923 0.603494 -1.054051 -5.030838 0.017700 -0.858500 -2.359500 15.616269 11.424777 -31.924880 -4.203570 -11.966635 38.752919 2.504397 -10.143230 4.099187 -0.354200 3.823500 -10.580700 3.371164 -1.533982 6.508243 3.359027 -0.791091 -6.313256 3.005884 -4.088042 14.210914 -0.218500 -1.780500 7.710500 -75.867194 0.374719 28.822862 18.245503 -29.145058 -4.931253 -0.202042 -0.670010 -2.350077 -7.125000 0.000000 0.000000 74.491926 -1.277247 6.871687 -11.040631 23.075738 -2.764125 0.846195 -0.281318 4.861413 7.125000 0.000000 0.000000 
1.130993 17.997297 7.599149 2.014923 -0.900839 0.521142 -23.311548 -9.577012 -5.979366 0.806061 6.626868 26.561937 0.601850 -1.051415 -5.036802 0.009200 -0.619700 -1.702800 15.491106 11.432749 -31.962845 -3.549739 -11.277374 36.054572 2.764132 -11.012858 4.974724 -0.425500 4.186600 -11.602200 3.458016 -1.583653 6.506485 3.398518 -0.820862 -6.302163 3.119614 -4.085219 13.712126 -0.171200 -1.789400 7.519700 -75.725422 -0.253986 29.024615 18.116872 -28.980187 -4.865625 -0.204454 -0.671069 -2.410756 -7.125000 0.000000 0.000000 74.487722 -1.108179 6.639004 -10.995692 22.976781 -2.700984 0.901432 -0.345814 5.512081 7.125000 0.000000 0.000000 
1.123823 17.996401 7.744258 2.103889 -1.036443 0.568986 -23.331502 -9.113995 -5.573426 0.767441 6.533674 26.333480 0.637558 -1.124561 -5.265598 0.014900 -0.787900 -2.165500 15.255560 11.654132 -31.694762 -2.891090 -10.498515 33.248886 2.988296 -11.700135 5.415528 -0.266600 3.321300 -9.174500 3.516152 -1.566140 6.545089 3.510106 -0.816179 -6.205433 3.225392 -4.164257 13.836807 -0.127600 -1.820600 7.555000 -75.550196 -0.674066 29.093403 18.251474 -29.158017 -4.933173 -0.212163 -0.676360 -1.809708 -7.125000 0.000000 0.000000 74.529821 -1.004021 6.276763 -10.783163 22.632246 -2.609974 0.925675 -0.288675 5.332887 7.125000 0.000000 0.000000 
1.110178 17.995106 7.889466 1.919276 -1.164876 0.732151 -23.000472 -8.616470 -5.393875 0.724922 6.464856 26.115927 0.712011 -1.326199 -5.451211 0.017800 -0.860400 -2.364700 15.217167 12.077043 -31.340444 -2.256487 -9.648234 30.389465 3.190578 -12.314980 5.940015 -0.093900 1.975800 -5.438800 3.681030 -1.599840 6.570116 3.566871 -0.841998 -6.117201 3.348017 -4.112033 14.555638 -0.072600 -1.765700 7.860300 -75.371062 -1.034023 29.103601 18.436937 -29.409928 -5.025588 -0.223715 -0.692103 -1.507929 -7.125000 0.000000 0.000000 74.563988 -0.913904 6.125109 -10.700129 22.500670 -2.572598 0.928203 -0.296277 5.251663 7.125000 0.000000 0.000000 
1.102509 17.994011 8.029496 1.804284 -1.069960 0.995677 -22.767062 -8.538978 -5.136824 0.664850 6.371116 25.824959 0.743077 -1.432422 -5.442912 0.019200 -0.895400 -2.460900 14.988795 12.477288 -31.101381 -1.664996 -8.790639 27.536075 3.432544 -13.088650 6.586716 -0.060600 1.588200 -4.368900 3.845060 -1.724982 6.331032 3.655395 -0.904512 -6.272527 3.253071 -4.079696 14.582988 -0.107800 -1.753500 7.856600 -75.216829 -1.225666 29.149015 18.420152 -29.404678 -5.020084 -0.245319 -0.695784 -1.662023 -7.125000 0.000000 0.000000 74.529121 -1.156219 6.323263 -10.782357 22.641385 -2.585565 0.935929 -0.384503 5.596845 7.125000 0.000000 0.000000 
1.104999 17.987736 8.174505 2.085419 -0.848239 1.216799 -23.045399 -8.619479 -4.670852 0.619089 6.264427 25.568257 0.693667 -1.267018 -5.464692 0.024500 -1.011100 -2.779300 14.375432 12.413231 -30.943771 -1.082572 -7.923535 24.666075 3.512183 -13.400941 7.340574 -0.125900 2.287100 -6.299800 3.766429 -1.870158 6.165476 3.692562 -0.980812 -6.288401 3.329018 -4.119603 14.172886 -0.081900 -1.781300 7.666600 -75.086325 -1.534092 29.271706 18.374079 -29.348420 -4.998159 -0.254134 -0.693504 -1.715299 -7.125000 0.000000 0.000000 74.525047 -1.238717 6.227815 -10.679912 22.491322 -2.546742 0.919318 -0.408593 5.594691 7.125000 0.000000 0.000000 
1.098327 17.986641 8.325490 2.375514 -0.696264 1.352328 -23.296671 -8.623104 -4.164017 0.569346 6.149501 25.286998 0.614289 -1.051286 -5.272718 0.021900 -0.955100 -2.625200 13.808984 12.418328 -30.602190 -0.553411 -7.036451 21.880543 3.608052 -13.701517 7.737928 -0.238400 3.142100 -8.674500 3.743210 -2.001952 6.151027 3.833022 -1.047785 -6.181481 3.382972 -4.104540 14.198737 -0.042500 -1.776700 7.672900 -75.007582 -1.828834 29.379336 18.505548 -29.507271 -5.066639 -0.249726 -0.685042 -1.836180 -7.125000 0.000000 0.000000 74.469353 -1.171380 6.031138 -10.492363 22.209852 -2.494852 0.894181 -0.362702 5.338101 7.125000 0.000000 0.000000 
1.085678 17.986740 8.474384 2.365522 -0.639739 1.451114 -23.190423 -8.565322 -3.710907 0.505363 6.034381 24.956791 0.637056 -1.158479 -5.198145 0.045500 -1.376200 -3.784500 13.529326 12.779494 -30.121981 -0.098554 -6.149505 19.277284 3.753652 -14.056373 7.675621 -0.360200 3.855500 -10.670500 3.793628 -2.091265 6.190124 3.890425 -1.093498 -6.078704 3.104522 -4.039836 14.072031 -0.149500 -1.763400 7.626500 -74.894910 -2.085822 29.365081 18.673564 -29.699622 -5.156378 -0.230489 -0.661200 -1.878716 -7.125000 0.000000 0.000000 74.466945 -1.152004 6.179655 -10.488103 22.200616 -2.500708 0.901424 -0.305466 5.115962 7.125000 0.000000 0.000000 
1.073129 17.979171 8.621684 2.458955 -0.617401 1.592174 -23.184478 -8.396306 -3.211257 0.448215 5.919064 24.641378 0.671619 -1.241532 -5.378842 0.104900 -2.088300 -5.749800 12.992507 13.441648 -29.588583 0.302970 -5.263800 16.746785 3.914776 -14.423533 7.441340 -0.366500 3.888800 -10.764100 3.740260 -2.164280 6.175028 3.915427 -1.132537 -6.042552 3.254305 -4.081906 13.960115 -0.113500 -1.771100 7.578700 -74.680675 -2.339803 29.338868 18.775572 -29.816405 -5.207729 -0.210653 -0.653877 -1.799975 -7.125000 0.000000 0.000000 74.594039 -1.471501 6.931624 -10.845435 22.752889 -2.641341 0.919688 -0.278968 4.661702 7.125000 0.000000 0.000000 
1.058290 17.973494 8.769980 2.673676 -0.549218 1.713583 -23.284951 -8.126076 -2.726985 0.400663 5.808413 24.355687 0.744315 -1.468177 -5.575884 0.192100 -2.822700 -7.785600 12.279396 14.131669 -28.988239 0.647093 -4.399767 14.290618 4.099679 -14.929365 7.523548 -0.351200 3.807800 -10.536500 3.666496 -2.181315 6.139927 3.987016 -1.141814 -6.027068 3.685160 -4.133777 13.964312 0.034800 -1.765500 7.577100 -74.494524 -2.652290 29.720282 18.764630 -29.812868 -5.207731 -0.229454 -0.649208 -2.008873 -7.125000 0.000000 0.000000 74.729957 -1.748501 7.056246 -11.087210 23.126478 -2.745768 0.914375 -0.279504 4.535555 7.125000 0.000000 0.000000 
1.048828 17.964033 8.920467 3.005158 -0.328383 1.905289 -23.528197 -8.041377 -2.249339 0.341704 5.675078 24.015413 0.780721 -1.679999 -5.409603 0.148900 -2.487000 -6.853700 11.365523 14.724260 -28.581619 0.928902 -3.612550 12.023578 4.282713 -15.475091 7.694679 -0.412300 4.121900 -11.420000 3.613042 -2.298327 6.066541 4.144141 -1.196922 -5.961924 3.629000 -4.079507 13.902869 0.021800 -1.745800 7.554400 -74.443147 -2.956443 29.973630 18.748253 -29.793861 -5.200438 -0.239544 -0.649429 -2.245580 -7.125000 0.000000 0.000000 74.714244 -1.790942 6.795204 -11.012677 23.017431 -2.736372 0.899854 -0.209680 4.818275 7.125000 0.000000 0.000000 
1.043948 17.955268 9.081710 3.256751 -0.073338 1.967999 -23.709577 -8.069091 -1.559964 0.288054 5.550719 23.700075 0.785079 -1.791029 -5.189418 0.140700 -2.417400 -6.660600 10.510405 15.347363 -27.904281 1.173167 -2.824129 9.831418 4.507608 -16.071452 7.562886 -0.475400 4.422000 -12.267000 3.531451 -2.476203 6.195974 4.189096 -1.288159 -5.747675 3.643771 -4.072291 13.610239 0.028600 -1.752000 7.465900 -74.398907 -3.294140 29.837502 18.870703 -29.930451 -5.260839 -0.219323 -0.644177 -2.214289 -7.125000 0.000000 0.000000 74.656602 -1.663611 6.969680 -10.914522 22.860650 -2.700394 0.900079 -0.157586 4.648475 7.125000 0.000000 0.000000 
1.031399 17.954870 9.244348 3.369495 0.115388 2.059527 -23.692389 -8.038687 -1.067772 0.249092 5.470798 23.478383 0.858616 -2.148421 -4.970271 0.178200 -2.719300 -7.498200 9.909346 15.981900 -27.049016 1.394420 -2.003616 7.654399 4.811787 -16.755177 6.742913 -0.415400 4.137000 -11.462400 3.528102 -2.627124 6.277411 4.260554 -1.364145 -5.624596 3.952812 -4.156127 13.788556 0.140500 -1.768700 7.566200 -74.383858 -3.620745 29.668456 18.910205 -29.976026 -5.276972 -0.210844 -0.650254 -1.864230 -7.125000 0.000000 0.000000 74.678157 -1.606435 6.940040 -10.856082 22.765302 -2.664991 0.910386 -0.188797 4.552234 7.125000 0.000000 0.000000 
1.012476 17.952480 9.400611 3.195400 0.168310 2.215247 -23.371112 -8.070321 -0.839691 0.221411 5.439104 23.352790 0.922172 -2.479219 -4.632088 0.177200 -2.711200 -7.475600 10.208658 15.716159 -26.565695 1.598786 -1.249146 5.731153 4.720058 -16.412109 6.331539 -0.329300 3.688100 -10.200900 3.727710 -2.745171 6.181958 4.395258 -1.417751 -5.665986 3.872233 -4.140483 14.033916 0.116800 -1.758800 7.653700 -74.371598 -3.820741 29.648223 18.795314 -29.827635 -5.221026 -0.213139 -0.637973 -1.721083 -7.125000 0.000000 0.000000 74.678454 -1.683451 6.636294 -10.755628 22.624897 -2.618710 0.898468 -0.270476 4.903913 7.125000 0.000000 0.000000 
